<svg xmlns="http://www.w3.org/2000/svg" viewBox="0 0 1024 1024" fill="none">
  <circle cx="512" cy="512" r="512" fill="#FF8C00"/>
  <g fill="#FFFFFF">
    <!-- Smartphone outline -->
    <path d="M350 250C350 230 365 215 385 215H640C660 215 675 230 675 250V775C675 795 660 810 640 810H385C365 810 350 795 350 775V250ZM385 275V700H640V275H385Z"/>
    
    <!-- Small dot at top of phone -->
    <circle cx="512" cy="240" r="10"/>
    
    <!-- Second smartphone outline -->
    <path d="M450 450C450 430 465 415 485 415H740C760 415 775 430 775 450V775C775 795 760 810 740 810H485C465 810 450 795 450 775V450ZM485 475V700H740V475H485Z"/>
    
    <!-- Apple logo on second phone -->
    <path d="M612 550C612 520 637 505 662 505C667 505 672 506 675 507C673 485 655 470 635 470C615 470 600 485 595 505C590 525 595 550 610 570C605 580 595 590 585 595C590 610 600 625 615 635C630 645 645 645 660 635C675 625 680 610 680 595C670 590 662 585 657 575C652 565 650 555 650 545C650 535 655 525 662 525C670 525 675 535 675 545C675 555 670 565 665 575C660 585 655 590 650 595C655 605 665 610 675 610C685 610 690 600 690 590C690 570 675 550 655 545C650 530 650 515 655 505C645 505 635 510 630 520C625 530 625 540 630 550C635 560 645 565 655 565C665 565 675 560 680 550C675 540 665 535 655 535C645 535 635 540 630 550C625 560 625 570 630 580C635 590 645 595 655 595C665 595 675 590 680 580C685 570 685 560 680 550C675 540 665 535 655 535C645 535 635 540 630 550"/>
    
    <!-- Repair tool -->
    <path d="M250 350C240 340 240 325 250 315L300 265C310 255 325 255 335 265L345 275L395 225C405 215 420 215 430 225L440 235C450 245 450 260 440 270L390 320L550 480C560 490 560 505 550 515L500 565C490 575 475 575 465 565L305 405L295 415C285 425 270 425 260 415L250 405C240 395 240 380 250 370L260 360L250 350Z"/>
  </g>
</svg>